<svg id="Layer_1" data-name="Layer 1" xmlns="http://www.w3.org/2000/svg" xmlns:xlink="http://www.w3.org/1999/xlink" viewBox="0 0 645.67 472.53" width="406" height="306" class="illustration styles_illustrationTablet__1DWOa"><defs><linearGradient id="linear-gradient" x1="306.16" y1="603.55" x2="369.61" y2="-109.56" gradientUnits="userSpaceOnUse"><stop offset="0" stop-color="#010101" stop-opacity="0"></stop><stop offset="0.95" stop-color="#010101"></stop></linearGradient><linearGradient id="linear-gradient-2" x1="332.32" y1="-111.01" x2="341.38" y2="732.05" gradientUnits="userSpaceOnUse"><stop offset="0" stop-color="#fff" stop-opacity="0"></stop><stop offset="0.95" stop-color="#fff"></stop></linearGradient><linearGradient id="linear-gradient-3" x1="487.41" y1="225.88" x2="-73.36" y2="669.5" xlink:href="#linear-gradient-2"></linearGradient><linearGradient id="linear-gradient-4" x1="203.96" y1="305.41" x2="1547.66" y2="412.21" xlink:href="#linear-gradient"></linearGradient><linearGradient id="linear-gradient-5" x1="423.1" y1="348.29" x2="574.33" y2="348.29" gradientUnits="userSpaceOnUse"><stop offset="0" stop-color="#e5c6d6"></stop><stop offset="0.42" stop-color="#ead4d0"></stop><stop offset="1" stop-color="#f0e9cb"></stop></linearGradient><linearGradient id="linear-gradient-6" x1="569.83" y1="436.04" x2="765.52" y2="285.46" gradientTransform="translate(-217.82 106.5) rotate(-19.32)" xlink:href="#linear-gradient-5"></linearGradient><linearGradient id="linear-gradient-7" x1="630.2" y1="396.46" x2="642.58" y2="377.22" gradientTransform="translate(-217.82 106.5) rotate(-19.32)" xlink:href="#linear-gradient-2"></linearGradient><linearGradient id="linear-gradient-8" x1="595.63" y1="331.96" x2="508.95" y2="393.65" gradientTransform="translate(-217.82 106.5) rotate(-19.32)" xlink:href="#linear-gradient-5"></linearGradient></defs><title>Ipad</title><path d="M647.54,346.71c-8.13,10.76-18.62,19.21-27.73,29-19.64,21.32-26.72,54-45.48,74.48-1,1.08-2,2.14-3.09,3.15-15,14.27-37.41,24.34-60.13,29.21-16.41,3.54-33,4.35-47.16,2.18-17.82-2.74-34.65-10.17-52.18-14.52C323.9,448.43,232.48,506,143.56,489.59,99.06,481.39,58,454,32,415.12c-5-7.51-9.57-15.61-11.47-24.55-2.49-12,0-24.58,4.07-36.11,7.43-21.25,20-40.15,27.84-61.19,12-32.16,12.7-67.57,15.61-102s9-70.34,29.38-97.37c22.16-29.35,58-43.59,93.17-49.2s71-3.92,106.38-8.13C346.3,30.63,395.88,13.14,444.69,23c19.4,3.93,37.84,12.1,55.37,21.67,24.58,13.46,48.29,30.47,64.06,54.45,11.54,17.57,18.34,38.12,29.42,56,13.82,22.3,33.7,39.62,48.5,61.19C668,254.14,675.14,310.13,647.54,346.71Z" transform="translate(-19.49 -20.04)" fill="#bb6ef5" opacity="0.24" style="isolation: isolate;"></path><path d="M336.32,419.1h-141c-14.09,0-28.19-.23-42.27.11-10.53.26-19-7.53-18.92-18.88q.24-97.57.08-195.16v-76.7c0-11.25,7.3-18.54,18.51-18.54H408.3q55.89,0,111.8,0c9.32,0,16.21,5.27,18,13.72a19.05,19.05,0,0,1,.34,3.92q0,113.58,0,227.16,0,23.11,0,46.23c0,10.87-7.32,18.15-18.24,18.15H336.32Zm.05-11.85H520.09c4.79,0,6.45-1.65,6.45-6.37v-71q0-100,.06-200.12c0-6.9-2.31-8-8.12-8q-92.33.12-184.63,0H152.49c-4.62,0-6.35,1.71-6.35,6.29q0,68.25,0,136.51t0,136.31c0,4.61,1.69,6.32,6.31,6.32Z" transform="translate(-19.49 -20.04)" fill="#bb6ef5"></path><path d="M538.42,127.59a18.4,18.4,0,0,0-.31-3.93c-1.79-8.45-8.7-13.71-18-13.71q-55.86-.06-111.78,0H152.68c-11.19,0-18.48,7.26-18.52,18.51v76.72c0,65.05.11,130.09-.07,195.14,0,11.36,8.42,19.14,18.94,18.9,14.06-.35,28.15-.11,42.25-.11H520.22a18.34,18.34,0,0,0,13.22-5c3.19-3.16,5-7.71,5-13.15V354.74Q538.46,241.17,538.42,127.59ZM526.54,400.88c0,4.73-1.65,6.38-6.46,6.38H152.43c-4.59,0-6.31-1.72-6.31-6.34V264.62q0-68.26,0-136.51c0-4.59,1.72-6.27,6.35-6.27H333.86q92.29,0,184.61-.07c5.82,0,8.14,1.08,8.14,8q-.17,100-.07,200.11Z" transform="translate(-19.49 -20.04)" fill="url(#linear-gradient)"></path><path d="M336.37,407.25H152.44c-4.62,0-6.31-1.71-6.31-6.32q0-68.16,0-136.31t0-136.51c0-4.58,1.73-6.29,6.35-6.29H333.85q92.31,0,184.63,0c5.81,0,8.13,1.08,8.12,8q-.17,100.07-.06,200.12v71c0,4.72-1.66,6.37-6.45,6.37Z" transform="translate(-19.49 -20.04)" fill="#bb6ef5"></path><path d="M526.54,329.87v71c0,4.73-1.65,6.38-6.46,6.38H152.43c-4.59,0-6.31-1.72-6.31-6.34V264.62q0-68.26,0-136.51c0-4.59,1.72-6.27,6.35-6.27H333.86q92.29,0,184.61-.07c5.82,0,8.14,1.08,8.14,8Q526.44,229.8,526.54,329.87Z" transform="translate(-19.49 -20.04)" fill="url(#linear-gradient-2)"></path><path d="M398.41,222.12c-.18,7.29-3.23,14.73-9.12,19-4.56,3.29-10.24,4.45-15.43,6.62-22.86,9.58-32.19,36.3-47.93,55.44-23.11,28.09-61.33,39.8-97.72,40.47-27.71.52-56.46-5-78.83-21.25-1.09-.81-2.17-1.65-3.26-2.49v-55.3q0-68.26,0-136.51c0-4.59,1.72-6.27,6.35-6.27H234c-.74,7.71-.46,13.64,2.52,21.53,6.28,16.62,18.83,31.48,36.08,37.13,11.78,3.86,24.48,3.26,36.89,3.05,19-.39,38.08.21,57.05,1.72,6.24.49,12.83,1.19,17.92,4.84,3.82,2.77,6.42,6.87,8.52,11.11C396.2,207.71,398.58,214.86,398.41,222.12Z" transform="translate(-19.49 -20.04)" fill="#bb6ef5" opacity="0.24" style="isolation: isolate;"></path><path d="M526.54,362.87v38c0,4.73-1.65,6.38-6.46,6.38H152.43c-4.59,0-6.31-1.72-6.31-6.34V286c20.86,4.14,40.32,13.68,60.77,19.68,21.32,6.27,45.65,8.31,64.69-3.2,26.05-15.81,34.12-51.79,59.86-68.13,24.33-15.46,55.43-7.89,74.93,11.36,6,5.9,10.94,12.77,17.39,18.1,11.61,9.64,26.83,13.46,40.29,20.3C494.7,299.68,515,330.26,526.54,362.87Z" transform="translate(-19.49 -20.04)" fill="url(#linear-gradient-3)"></path><path d="M533.44,414.1a18.34,18.34,0,0,1-13.22,5H495.68c-.77-4-1.61-7.92-2.56-11.85-4.84-20.27-12.34-40-25.81-56.14-4.73-5.68-10.1-10.8-14.8-16.51-16.09-19.64-23.31-45.06-37.3-66.27-9.68-14.77-22.48-27.18-35.14-39.45l44,20c2.63,1.22,5.36,2.45,8.24,2.59,4.17.25,8.13-1.72,12-3.3,17.88-7.29,39.87-6.59,55,5.4a52.73,52.73,0,0,1,15.21,20.48c9.44,21.64,6.49,46.32,6.88,70a236.48,236.48,0,0,0,12,70.09Z" transform="translate(-19.49 -20.04)" fill="url(#linear-gradient-4)"></path><path d="M553.22,377.46c-2.49-7.26-6-14.13-8.49-21.43-7.92-23.49-4-49-3.19-73.81.25-6.91-2.56-14.13-2-21,.31-4,1-8.24-.42-12-1.58-4.11-5.51-6.91-9.57-8.56s-8.49-2.42-12.63-3.93c-10.48-3.78-18.69-11.92-27.8-18.41-2.74-2-5.72-3.82-9.09-4.24-3.08-.38-6.17.49-9.15,1.47a138,138,0,0,0-20.26,8.49c-5.12,2.63-10.1,5.57-15.54,7.5-3.33,1.2-6.84,2-9.89,3.83a4.81,4.81,0,0,0-1.75,1.57c-.84,1.62.18,3.61,1.44,5a15.27,15.27,0,0,0,2.7,2.31c-2.28,2.21-2.81,5.79-2.42,9,.42,3.4,1.72,6.63,2.21,10s.21,6.63.7,9.93c1.26,8.55,7.26,15.46,12.13,22.61,10.77,15.78,17.11,35,31.35,47.69,6.42,5.72,14.34,10.1,18.55,17.57,18.86,33.31,17.18,74.09,19.95,112.27a88.37,88.37,0,0,0,1.09,9.33c22.72-4.87,45.09-14.94,60.13-29.21,1-1,2.11-2.07,3.09-3.15C572.22,445.45,560.23,397.9,553.22,377.46Zm-65.43-110c-5.16,4.8-11,9.89-16.13,14.69-7.68-4.31-11.92-12.69-16.06-20.48-3.19-5.89-6.91-12-12.2-15.92,4.52-1.5,8.83-3.92,13.6-4.34,2.18-.18,4.39.07,6.56-.32s4.28-1.44,6.52-1.3c2.49.18,4.63,1.86,6.56,3.47l5.89,4.84c1.79,1.51,3.72,3.12,4.45,5.37.7,2,.35,4.35,1.23,6.28.63,1.33,1.82,2.45,1.86,3.89S488.91,266.41,487.79,267.46Z" transform="translate(-19.49 -20.04)" fill="url(#linear-gradient-5)"></path><path d="M527.84,266c3.6,1,7.43,1.79,10.33,4.15s4.39,7,2,9.87c-2,2.36-5.47,2.51-8.53,2.38a157.63,157.63,0,0,1-22-2.49c-7.72-1.44-15.79-3.44-23.27-1-5.71,1.82-11.12,6.17-17,4.92l17.67-16c1.63-1.47,3.37-3.17,3.5-5.36.17-3-2.71-5.2-5.09-7.07s-12.57-10.05-7.73-13.36c3.35-2.29,13,5,16.06,6.73C504.8,255.09,515.5,262.43,527.84,266Z" transform="translate(-19.49 -20.04)" fill="url(#linear-gradient-6)"></path><path d="M379,230.14l20.42,10.45L634.05,299a7.83,7.83,0,0,0,9.52-5.84h0a7.82,7.82,0,0,0-5.78-9.37l-230.15-55.9L380,226.64A1.85,1.85,0,0,0,379,230.14Z" transform="translate(-19.49 -20.04)" fill="#bb6ef5"></path><path d="M379,230.14l20.42,10.45L634.05,299a7.83,7.83,0,0,0,9.52-5.84h0a7.82,7.82,0,0,0-5.78-9.37l-230.15-55.9L380,226.64A1.85,1.85,0,0,0,379,230.14Z" transform="translate(-19.49 -20.04)" fill="url(#linear-gradient-7)"></path><path d="M426.23,234.14a2.21,2.21,0,0,0-1.19.67c-.55.76,0,1.8.63,2.5,3.47,3.91,8.72,5.92,13.94,6.36s10.44-.53,15.52-1.77q3.67-.9,7.3-2a25,25,0,0,0-3.89-1.2c-4.74-1.23-9.27-3.14-14-4.49A30.49,30.49,0,0,0,426.23,234.14Z" transform="translate(-19.49 -20.04)" fill="url(#linear-gradient-8)"></path></svg>